HIERARCHY
ROOT hip
{
	OFFSET 0.00000 0.00000 0.00000
	CHANNELS 6 Xposition Yposition Zposition Zrotation Yrotation Xrotation 
	JOINT rightuplegdummy
	{
		OFFSET 0 0 0
		CHANNELS 3 Zrotation Yrotation Xrotation
		JOINT rightupleg
		{
			OFFSET -3.52197 -3.41223 0.04002
			CHANNELS 3 Zrotation Yrotation Xrotation
			JOINT rightleg
			{
				OFFSET 0.00006 -17.42390 1.60435
				CHANNELS 3 Zrotation Yrotation Xrotation
				JOINT rightfoot
				{
					OFFSET 0.06153 -16.50078 -1.63901
					CHANNELS 3 Zrotation Yrotation Xrotation
					JOINT righttoes
					{
						OFFSET 0.00298 -1.73825 3.34613
						CHANNELS 3 Zrotation Yrotation Xrotation
						End Site
						{
							OFFSET 0.00480 -0.05416 3.85043
						}
					}
				}
			}
		}
	}
	JOINT spinedummy
	{
		OFFSET 0 0 0
		CHANNELS 3 Zrotation Yrotation Xrotation
		JOINT spine
		{
			OFFSET 0.00000 4.68130 0.00000
			CHANNELS 3 Zrotation Yrotation Xrotation
			JOINT spine1
			{
				OFFSET -0.00000 10.10138 0.05002
				CHANNELS 3 Zrotation Yrotation Xrotation
				JOINT headdummy
				{
					OFFSET 0 0 0
					CHANNELS 3 Zrotation Yrotation Xrotation
					JOINT head
					{
						OFFSET -0.00000 3.43865 0.00438
						CHANNELS 3 Zrotation Yrotation Xrotation
						End Site
						{
							OFFSET -0.11417 5.02924 0.98962
						}
					}
				}
				JOINT leftshoulder1dummy
				{
					OFFSET 0 0 0
					CHANNELS 3 Zrotation Yrotation Xrotation
					JOINT leftshoulder1
					{
						OFFSET 3.53937 -0.14262 -0.08662
						CHANNELS 3 Zrotation Yrotation Xrotation
						JOINT leftarm
						{
							OFFSET 4.04833 -0.00133 0.12681
							CHANNELS 3 Zrotation Yrotation Xrotation
							JOINT leftforearm
							{
								OFFSET 10.33880 -0.01036 -0.55515
								CHANNELS 3 Zrotation Yrotation Xrotation
								JOINT lefthand
								{
									OFFSET 8.69677 0.07543 0.40060
									CHANNELS 3 Zrotation Yrotation Xrotation
									End Site
									{
										OFFSET 5.28377 -0.21905 0.59205
									}
								}
							}
						}
					}
				}
				JOINT rightshoulderdummy
				{
					OFFSET 0 0 0
					CHANNELS 3 Zrotation Yrotation Xrotation
					JOINT rightshoulder
					{
						OFFSET -3.53937 -0.14262 -0.08660
						CHANNELS 3 Zrotation Yrotation Xrotation
						JOINT rightarm
						{
							OFFSET -4.04833 -0.00133 0.12683
							CHANNELS 3 Zrotation Yrotation Xrotation
							JOINT rightforearm
							{
								OFFSET -10.37987 -0.01039 -0.55511
								CHANNELS 3 Zrotation Yrotation Xrotation
								JOINT righthand
								{
									OFFSET -8.67398 0.07538 0.40058
									CHANNELS 3 Zrotation Yrotation Xrotation
									End Site
									{
										OFFSET -5.24810 -0.21916 0.59204
									}
								}
							}
						}
					}
				}
			}
		}
	}
	JOINT leftuplegdummy
	{
		OFFSET 0 0 0
		CHANNELS 3 Zrotation Yrotation Xrotation
		JOINT leftupleg
		{
			OFFSET 3.52197 -3.41223 0.04002
			CHANNELS 3 Zrotation Yrotation Xrotation
			JOINT leftleg
			{
				OFFSET -0.00012 -17.42399 1.60337
				CHANNELS 3 Zrotation Yrotation Xrotation
				JOINT leftfoot
				{
					OFFSET -0.09972 -16.50070 -1.63802
					CHANNELS 3 Zrotation Yrotation Xrotation
					JOINT lefttoes
					{
						OFFSET -0.01575 -1.73823 3.34611
						CHANNELS 3 Zrotation Yrotation Xrotation
						End Site
						{
							OFFSET 0.03150 -0.01868 3.85031
						}
					}
				}
			}
		}
	}
}
MOTION
Frames: 12
Frame Time: 0.033333
-1.5674 37.3917 29.5767 175.0900 53.1317 171.6010 0.0000 -0.0000 0.0000 -22.9162 -26.4088 3.3897 3.6990 4.6889 34.3253 21.1151 1.1573 -17.8917 0.0000 0.0000 -0.0000 0.0000 -0.0000 0.0000 -1.3281 1.5410 4.0682 -1.4043 1.8197 16.1925 -0.0000 -0.0000 -0.0000 -27.2808 42.6308 -25.9294 -0.0000 -0.0000 -0.0000 -22.7778 -3.2283 1.9568 -35.5349 -16.6229 13.8290 2.3795 -59.4856 35.2272 12.7836 7.3619 0.1706 -0.0000 -0.0000 -0.0000 29.4002 5.3252 3.1282 34.5560 14.2524 0.5925 179.4198 71.4578 -175.3288 -14.7622 -10.3127 0.5652 0.0000 -0.0000 0.0000 5.9992 10.5248 -12.2113 -2.2021 -2.6989 38.2417 -6.7590 -0.0736 -14.0371 0.0000 -0.0000 -0.0000
-1.2824 38.9015 29.3723 174.6080 55.6617 170.7050 0.0000 -0.0000 0.0000 -21.5758 -22.1420 4.9696 1.9020 3.2072 27.9334 22.8271 -0.7179 -8.0654 0.0000 0.0000 -0.0000 0.0000 -0.0000 0.0000 1.2877 2.3707 3.1585 -4.2156 3.6308 16.0542 -0.0000 -0.0000 -0.0000 -26.6704 44.4649 -22.9706 -0.0000 -0.0000 -0.0000 -23.6954 -3.2618 2.0253 -40.6064 -10.9644 13.4747 1.7787 -56.0414 30.3961 16.6968 6.7606 0.1555 -0.0000 -0.0000 -0.0000 30.5000 5.5710 3.3133 40.5098 9.4013 6.0673 179.2001 71.7955 -177.3442 -11.2830 -9.9159 0.3729 0.0000 -0.0000 0.0000 6.1902 11.8881 -7.0000 -1.2528 -2.2597 29.9623 -8.1242 0.4221 -5.9691 0.0000 -0.0000 -0.0000
-1.0002 40.5864 29.0852 174.4480 56.9525 170.7040 0.0000 -0.0000 0.0000 -20.4077 -19.4580 6.2379 0.0917 0.5999 21.1582 21.4146 -3.2204 5.6896 0.0000 0.0000 -0.0000 0.0000 -0.0000 0.0000 2.1529 2.6489 1.7306 -4.7339 4.0747 15.1574 -0.0000 -0.0000 -0.0000 -24.6548 46.9861 -18.2587 -0.0000 -0.0000 -0.0000 -25.0231 -3.2429 2.1051 -43.7005 -2.6985 13.0149 1.2004 -57.7416 23.0439 13.5537 4.7057 -0.1087 -0.0000 -0.0000 -0.0000 30.7718 5.5918 3.3452 42.4536 4.0384 11.9980 178.7959 66.8594 177.8879 -5.6799 -8.5135 0.0867 0.0000 -0.0000 0.0000 6.2170 13.5289 -3.2036 -1.1939 -2.9950 21.6094 -8.4233 1.3644 7.6566 0.0000 -0.0000 -0.0000
-0.8894 41.6628 28.9469 174.5800 56.0858 171.6570 0.0000 -0.0000 0.0000 -19.1256 -17.6157 5.7673 -1.1936 -2.2200 17.9751 16.3943 -3.7618 14.5819 0.0000 0.0000 -0.0000 0.0000 -0.0000 0.0000 0.8362 2.1888 -0.1089 -2.9446 3.1127 15.1472 -0.0000 -0.0000 -0.0000 -23.4237 47.9321 -16.4820 -0.0000 -0.0000 -0.0000 -24.7941 -3.4726 2.1609 -46.7875 3.6486 13.1322 1.4318 -61.9343 23.3994 9.4729 3.1234 -0.2063 -0.0000 -0.0000 -0.0000 29.3426 5.2731 3.1054 42.3942 2.1796 15.7995 178.8684 60.6460 176.0447 -0.2608 -5.9554 -0.0511 0.0000 -0.0000 0.0000 5.8327 12.8377 -3.9063 -0.9965 -2.9349 18.7769 -8.1327 1.8862 16.0727 0.0000 -0.0000 -0.0000
-0.9279 42.0417 28.9580 174.1530 55.9038 171.5640 0.0000 -0.0000 0.0000 -18.1565 -14.0798 4.5121 -0.3226 -0.2628 18.2397 14.2939 -3.0616 13.0889 0.0000 0.0000 -0.0000 0.0000 -0.0000 0.0000 -0.2717 2.3064 -0.5837 -2.1932 2.9908 15.9813 -0.0000 -0.0000 -0.0000 -23.6834 47.1827 -17.9668 -0.0000 -0.0000 -0.0000 -22.3370 -3.7625 2.0815 -49.9412 5.8672 15.7806 1.9634 -65.8813 25.6120 8.0013 2.2279 -0.2326 -0.0000 -0.0000 -0.0000 26.5763 4.7595 2.7014 42.3865 3.8674 15.2610 178.7843 55.4066 173.1917 0.4860 -4.6340 -0.0391 0.0000 -0.0000 0.0000 5.4768 12.0534 -5.1124 -0.4018 -1.5552 18.6127 -6.4227 1.4271 15.1699 0.0000 -0.0000 -0.0000
-1.0633 41.8545 29.0253 174.0690 56.0458 171.0690 0.0000 -0.0000 0.0000 -17.4225 -11.3059 3.6299 2.6220 6.0500 19.4735 15.5864 -2.7532 8.8492 0.0000 0.0000 -0.0000 0.0000 -0.0000 0.0000 -0.3687 2.4148 0.8826 -2.4941 3.0821 15.8205 -0.0000 -0.0000 -0.0000 -24.4540 46.7143 -19.7455 -0.0000 -0.0000 -0.0000 -20.9398 -3.7265 1.9764 -49.3474 5.2975 19.2118 2.2973 -69.6428 25.2405 6.0150 2.6050 -0.1648 -0.0000 -0.0000 -0.0000 25.1393 4.5344 2.5162 39.5794 7.5586 10.2764 178.4388 52.3055 166.8317 -3.6045 -5.0471 -0.0500 0.0000 -0.0000 0.0000 5.6459 10.9704 -5.7058 -0.0416 -0.7535 18.8698 -4.7339 1.0322 15.4556 0.0000 -0.0000 -0.0000
-1.2071 41.0189 29.0997 174.7120 55.3843 171.6080 0.0000 -0.0000 0.0000 -16.4889 -9.5260 2.0233 5.1448 9.9552 22.7808 15.8474 -2.1705 4.2768 0.0000 0.0000 -0.0000 0.0000 -0.0000 0.0000 -0.7001 2.0895 2.1302 -2.0695 2.4794 14.5020 -0.0000 -0.0000 -0.0000 -23.4624 46.8017 -19.0519 -0.0000 -0.0000 -0.0000 -20.8566 -3.6756 1.9568 -47.0360 3.8646 20.7913 2.5680 -72.0536 24.5484 4.5566 2.5813 -0.1298 -0.0000 -0.0000 -0.0000 25.5431 4.6207 2.5748 34.3049 11.2903 2.3871 177.9310 54.2148 160.4812 -7.8644 -4.5504 -0.0905 0.0000 -0.0000 0.0000 6.4296 8.7420 -7.6199 -0.4589 -1.5386 22.1518 -6.6285 1.4271 14.4031 0.0000 -0.0000 -0.0000
-1.3034 39.5062 29.2018 174.8180 55.7012 171.6520 0.0000 -0.0000 0.0000 -16.2096 -8.0672 -0.0249 6.3323 9.6429 28.7854 13.5541 -0.6013 -6.5637 0.0000 0.0000 -0.0000 0.0000 -0.0000 0.0000 -2.0071 2.3443 2.4038 -0.7444 2.1831 14.1829 -0.0000 -0.0000 -0.0000 -22.4461 46.5956 -18.2843 -0.0000 -0.0000 -0.0000 -20.2044 -3.7050 1.9210 -45.5067 0.8783 20.9662 2.1394 -72.3154 21.7732 5.2009 1.7905 -0.1738 -0.0000 -0.0000 -0.0000 25.7247 4.6269 2.5909 29.4577 15.4084 -5.3315 177.3616 60.6991 158.3612 -11.5067 -4.0432 -0.1616 0.0000 -0.0000 0.0000 7.4992 9.6528 -9.8401 -2.1559 -3.6230 29.1082 -9.8361 1.2321 3.0895 0.0000 -0.0000 -0.0000
-1.4522 37.8274 29.3507 174.9830 56.8416 170.9620 0.0000 -0.0000 0.0000 -16.3491 -7.2944 -1.3126 7.1937 8.8137 34.6645 12.0566 0.7624 -19.1368 0.0000 0.0000 -0.0000 0.0000 -0.0000 0.0000 -2.8184 2.6856 3.0638 0.2626 2.0763 15.6196 -0.0000 -0.0000 -0.0000 -25.0178 46.2581 -21.4780 -0.0000 -0.0000 -0.0000 -20.4644 -3.3729 1.8486 -42.3133 -4.9646 19.1208 1.5668 -70.4097 19.7258 5.3173 2.8985 -0.1388 -0.0000 -0.0000 -0.0000 25.9168 4.6381 2.6093 25.3634 21.0818 -11.1569 177.0484 68.3023 162.8937 -17.3659 -6.6805 0.1672 0.0000 -0.0000 0.0000 8.6707 12.9067 -11.7349 -4.2666 -5.1051 36.9538 -10.0246 0.2459 -9.3728 0.0000 -0.0000 -0.0000
-1.6155 37.0036 29.4402 175.9440 56.3950 171.2290 0.0000 -0.0000 0.0000 -16.1230 -7.4882 -1.7498 7.7747 8.6417 37.4594 12.5038 1.3033 -23.9735 0.0000 0.0000 -0.0000 0.0000 -0.0000 0.0000 -2.1113 2.0805 3.6910 -0.1848 1.5602 17.1362 -0.0000 -0.0000 -0.0000 -28.0382 45.8233 -25.4442 -0.0000 -0.0000 -0.0000 -21.9836 -3.0325 1.8508 -39.9631 -10.4170 15.3204 2.2877 -65.8655 28.8371 6.2041 5.8977 -0.0190 -0.0000 -0.0000 -0.0000 27.5493 4.9393 2.8392 25.5650 23.7368 -11.8283 177.1909 73.8140 169.7482 -24.3063 -11.4938 1.2593 0.0000 -0.0000 0.0000 9.1833 12.7259 -13.3270 -4.3723 -4.6021 40.7759 -8.8238 -0.0773 -13.3568 0.0000 -0.0000 -0.0000
-1.5369 37.6594 29.3383 175.5820 55.2141 170.9330 0.0000 -0.0000 0.0000 -16.5533 -7.9534 -0.1377 7.1693 8.8111 34.6122 13.7097 0.9861 -20.1553 0.0000 0.0000 -0.0000 0.0000 -0.0000 0.0000 -1.6958 1.7034 3.1322 -1.1089 1.5244 17.6480 -0.0000 -0.0000 -0.0000 -27.2669 45.6059 -24.7886 -0.0000 -0.0000 -0.0000 -22.5141 -3.0493 1.8884 -42.6556 -10.6095 13.5302 3.1890 -63.0703 39.7179 10.8205 9.1606 0.2907 -0.0000 -0.0000 -0.0000 29.7274 5.3243 3.1560 32.3475 18.1985 -6.7395 176.9188 75.4508 169.4966 -27.6358 -13.4623 1.9135 0.0000 -0.0000 0.0000 8.3579 10.4565 -11.5539 -3.0653 -3.8254 36.6395 -9.2352 0.1214 -10.6247 0.0000 -0.0000 -0.0000
-1.2476 39.3394 29.0815 174.6130 55.2569 170.4500 0.0000 -0.0000 0.0000 -17.2656 -8.9490 3.3129 6.4018 10.8078 26.1611 15.3627 -0.3104 -9.3720 0.0000 0.0000 -0.0000 0.0000 -0.0000 0.0000 -1.3269 2.2006 1.9472 -1.3970 2.3261 16.8110 -0.0000 -0.0000 -0.0000 -24.7538 45.9566 -20.6948 -0.0000 -0.0000 -0.0000 -22.7820 -3.0497 1.9051 -45.5922 -5.0885 14.4890 3.1512 -65.6794 36.5143 12.9303 8.0994 0.2637 -0.0000 -0.0000 -0.0000 31.6378 5.6303 3.4379 38.8493 7.2825 -1.6590 176.5922 73.5141 165.0033 -23.1905 -13.5675 1.5908 0.0000 -0.0000 0.0000 7.6666 11.3535 -6.8938 -2.9292 -5.2817 26.8403 -10.6303 1.0314 -0.4288 0.0000 -0.0000 -0.0000
